<?xml version="1.0" encoding="utf-8"?>
<!-- Generator: Adobe Illustrator 22.1.0, SVG Export Plug-In . SVG Version: 6.00 Build 0)  -->
<svg version="1.1" id="Capa_1" xmlns="http://www.w3.org/2000/svg" xmlns:xlink="http://www.w3.org/1999/xlink" x="0px" y="0px"
	 viewBox="0 0 1024 1024" style="enable-background:new 0 0 1024 1024;" xml:space="preserve">
<style type="text/css">
	.st0{fill:#99CC33;}
</style>
<title></title>
<g id="icomoon-ignore">
</g>
<path class="st0" d="M513,1027.5c-163.6,0-290.4-42.4-377.2-126C45.7,814.7,0,684.4,0,514.5c0-170.2,45.7-300.6,135.8-387.7
	C222.6,42.6,349.6,0,513,0c163.6,0,290.8,42.6,377.9,126.6c90.5,87.2,136.4,217.7,136.4,387.7s-45.9,300.2-136.6,387.1
	C803.8,985.1,676.7,1027.5,513,1027.5L513,1027.5z M513,64.9c-146,0-257.8,36.5-332.2,108.3C104,247.8,64.9,362.5,64.9,514.5
	c0,151.8,38.9,266.2,115.9,340.4c74.1,71.5,186,107.7,332.2,107.7c146.4,0,258.5-36.2,333-107.7c77.4-74.1,116.5-188.6,116.5-340.2
	c0-151.8-39.3-266.4-116.5-341C771.3,101.4,659.3,64.9,513,64.9L513,64.9z"/>
<path class="st0" d="M514,861c-136.2,0-193.7-66.2-217.9-121.7c-7.2-16.4,0.4-35.6,16.8-42.8s35.6,0.4,42.8,16.8
	c24.2,55.7,76,82.7,158.3,82.7c82.1,0,133.7-27,157.9-82.5c7.2-16.4,26.2-24,42.6-16.8s24,26.2,16.8,42.6
	C707.4,794.8,650,861,514,861L514,861z"/>
<path class="st0" d="M204.4,480.3c-4.3,0-8.6-0.8-12.9-2.7c-16.4-7.2-24-26.2-16.8-42.6c14.5-33.6,48.9-73.7,129.4-73.7
	c80.7,0,115.1,40.1,129.6,73.7c7.2,16.4-0.4,35.6-16.8,42.8s-35.6-0.4-42.8-16.8c-6.6-15-20.9-34.8-70.2-34.8
	c-49.2,0-63.5,19.9-69.8,34.6C229,472.9,216.9,480.3,204.4,480.3L204.4,480.3z"/>
<path class="st0" d="M623.4,480.3c-4.3,0-8.6-0.8-12.9-2.7c-16.4-7.2-24-26.2-16.8-42.6c14.5-33.6,48.9-73.7,129.4-73.7
	c80.7,0,115.1,40.1,129.6,73.7c7.2,16.4-0.4,35.6-16.8,42.8s-35.6-0.4-42.8-16.8c-6.6-15-20.9-34.8-70.2-34.8
	c-49.2,0-63.5,19.9-69.8,34.6C648,472.9,635.9,480.3,623.4,480.3L623.4,480.3z"/>
</svg>
